<svg width="128" height="128" viewBox="0 0 128 128" fill="none" xmlns="http://www.w3.org/2000/svg">
  <rect width="128" height="128" rx="28" fill="#1F6FEB"/>
  <path d="M64 25C48.536 25 36 37.536 36 53C36 72.6 57.125 96.607 62.021 101.905C63.075 103.021 64.925 103.021 65.979 101.905C70.875 96.607 92 72.6 92 53C92 37.536 79.464 25 64 25ZM64 64C57.925 64 53 59.075 53 53C53 46.925 57.925 42 64 42C70.075 42 75 46.925 75 53C75 59.075 70.075 64 64 64Z" fill="white"/>
  <path d="M24 98C24 89.163 41.909 82 64 82C86.091 82 104 89.163 104 98" stroke="white" stroke-width="10" stroke-linecap="round"/>
</svg>
